<svg width="270" height="284" viewBox="0 0 270 284" fill="none" xmlns="http://www.w3.org/2000/svg">
<mask id="path-1-outside-1_0_9" maskUnits="userSpaceOnUse" x="0" y="0" width="270" height="284" fill="black">
<rect fill="white" width="270" height="284"/>
<path fill-rule="evenodd" clip-rule="evenodd" d="M269 142V71.5V1H205.19H166.905H103.095H64.8095H51C23.3858 1 1 23.3858 1 51V71.5V142V212.5V283H14.8095C42.4238 283 64.8095 260.614 64.8095 233V212.5H103.095V283H166.905V212.5H205.19V226.6C205.19 257.749 228.045 283 256.238 283H269V212.5V142ZM64.8095 142H103.095V71.5H64.8095V142ZM166.905 71.5V142H205.19V71.5H166.905Z"/>
</mask>
<path fill-rule="evenodd" clip-rule="evenodd" d="M269 142V71.5V1H205.19H166.905H103.095H64.8095H51C23.3858 1 1 23.3858 1 51V71.5V142V212.5V283H14.8095C42.4238 283 64.8095 260.614 64.8095 233V212.5H103.095V283H166.905V212.5H205.19V226.6C205.19 257.749 228.045 283 256.238 283H269V212.5V142ZM64.8095 142H103.095V71.5H64.8095V142ZM166.905 71.5V142H205.19V71.5H166.905Z" fill="url(#paint0_linear_0_9)"/>
<path d="M269 1H270V0H269V1ZM1 283H0V284H1V283ZM64.8095 212.5V211.5H63.8095V212.5H64.8095ZM103.095 212.5H104.095V211.5H103.095V212.5ZM103.095 283H102.095V284H103.095V283ZM166.905 283V284H167.905V283H166.905ZM166.905 212.5V211.5H165.905V212.5H166.905ZM205.19 212.5H206.19V211.5H205.19V212.5ZM269 283V284H270V283H269ZM64.8095 142H63.8095V143H64.8095V142ZM103.095 142V143H104.095V142H103.095ZM103.095 71.5H104.095V70.5H103.095V71.5ZM64.8095 71.5V70.5H63.8095V71.5H64.8095ZM166.905 142H165.905V143H166.905V142ZM166.905 71.5V70.5H165.905V71.5H166.905ZM205.19 142V143H206.19V142H205.19ZM205.19 71.5H206.19V70.5H205.19V71.5ZM268 71.5V142H270V71.5H268ZM268 1V71.5H270V1H268ZM205.19 2H269V0H205.19V2ZM166.905 2H205.19V0H166.905V2ZM103.095 2H166.905V0H103.095V2ZM64.8095 2H103.095V0H64.8095V2ZM51 2H64.8095V0H51V2ZM2 51C2 23.9381 23.938 2 51 2V0C22.8335 0 0 22.8335 0 51H2ZM2 71.5V51H0V71.5H2ZM2 142V71.5H0V142H2ZM2 212.5V142H0V212.5H2ZM2 283V212.5H0V283H2ZM14.8095 282H1V284H14.8095V282ZM63.8095 233C63.8095 260.062 41.8715 282 14.8095 282V284C42.9761 284 65.8095 261.167 65.8095 233H63.8095ZM63.8095 212.5V233H65.8095V212.5H63.8095ZM103.095 211.5H64.8095V213.5H103.095V211.5ZM104.095 283V212.5H102.095V283H104.095ZM166.905 282H103.095V284H166.905V282ZM165.905 212.5V283H167.905V212.5H165.905ZM205.19 211.5H166.905V213.5H205.19V211.5ZM206.19 226.6V212.5H204.19V226.6H206.19ZM256.238 282C228.689 282 206.19 257.293 206.19 226.6H204.19C204.19 258.205 227.402 284 256.238 284V282ZM269 282H256.238V284H269V282ZM268 212.5V283H270V212.5H268ZM268 142V212.5H270V142H268ZM64.8095 143H103.095V141H64.8095V143ZM104.095 142V71.5H102.095V142H104.095ZM103.095 70.5H64.8095V72.5H103.095V70.5ZM63.8095 71.5V142H65.8095V71.5H63.8095ZM167.905 142V71.5H165.905V142H167.905ZM205.19 141H166.905V143H205.19V141ZM204.19 71.5V142H206.19V71.5H204.19ZM166.905 72.5H205.19V70.5H166.905V72.5Z" fill="url(#paint1_linear_0_9)" mask="url(#path-1-outside-1_0_9)"/>
<path d="M269 1H270V0H269V1ZM1 283H0V284H1V283ZM64.8095 212.5V211.5H63.8095V212.5H64.8095ZM103.095 212.5H104.095V211.5H103.095V212.5ZM103.095 283H102.095V284H103.095V283ZM166.905 283V284H167.905V283H166.905ZM166.905 212.5V211.5H165.905V212.5H166.905ZM205.19 212.5H206.19V211.5H205.19V212.5ZM269 283V284H270V283H269ZM64.8095 142H63.8095V143H64.8095V142ZM103.095 142V143H104.095V142H103.095ZM103.095 71.5H104.095V70.5H103.095V71.5ZM64.8095 71.5V70.5H63.8095V71.5H64.8095ZM166.905 142H165.905V143H166.905V142ZM166.905 71.5V70.5H165.905V71.5H166.905ZM205.19 142V143H206.19V142H205.19ZM205.19 71.5H206.19V70.5H205.19V71.5ZM268 71.5V142H270V71.5H268ZM268 1V71.5H270V1H268ZM205.19 2H269V0H205.19V2ZM166.905 2H205.19V0H166.905V2ZM103.095 2H166.905V0H103.095V2ZM64.8095 2H103.095V0H64.8095V2ZM51 2H64.8095V0H51V2ZM2 51C2 23.9381 23.938 2 51 2V0C22.8335 0 0 22.8335 0 51H2ZM2 71.5V51H0V71.5H2ZM2 142V71.5H0V142H2ZM2 212.5V142H0V212.5H2ZM2 283V212.5H0V283H2ZM14.8095 282H1V284H14.8095V282ZM63.8095 233C63.8095 260.062 41.8715 282 14.8095 282V284C42.9761 284 65.8095 261.167 65.8095 233H63.8095ZM63.8095 212.5V233H65.8095V212.5H63.8095ZM103.095 211.5H64.8095V213.5H103.095V211.5ZM104.095 283V212.5H102.095V283H104.095ZM166.905 282H103.095V284H166.905V282ZM165.905 212.5V283H167.905V212.5H165.905ZM205.19 211.5H166.905V213.5H205.19V211.5ZM206.19 226.6V212.5H204.19V226.6H206.19ZM256.238 282C228.689 282 206.19 257.293 206.19 226.6H204.19C204.19 258.205 227.402 284 256.238 284V282ZM269 282H256.238V284H269V282ZM268 212.5V283H270V212.5H268ZM268 142V212.5H270V142H268ZM64.8095 143H103.095V141H64.8095V143ZM104.095 142V71.5H102.095V142H104.095ZM103.095 70.5H64.8095V72.5H103.095V70.5ZM63.8095 71.5V142H65.8095V71.5H63.8095ZM167.905 142V71.5H165.905V142H167.905ZM205.19 141H166.905V143H205.19V141ZM204.19 71.5V142H206.19V71.5H204.19ZM166.905 72.5H205.19V70.5H166.905V72.5Z" fill="white" fill-opacity="0.65" mask="url(#path-1-outside-1_0_9)"/>
<path d="M102.595 0.5H64.8095C29.2466 0.5 0.5 32.3359 0.5 71.5V72H1H102.595V283V283.5H103.095H166.905H167.405V283V72H269H269.5V71.5V1V0.5H269H167.405H166.905H103.095H102.595Z" fill="url(#paint2_linear_0_9)"/>
<path d="M102.595 0.5H64.8095C29.2466 0.5 0.5 32.3359 0.5 71.5V72H1H102.595V283V283.5H103.095H166.905H167.405V283V72H269H269.5V71.5V1V0.5H269H167.405H166.905H103.095H102.595Z" stroke="url(#paint3_linear_0_9)"/>
<path d="M102.595 0.5H64.8095C29.2466 0.5 0.5 32.3359 0.5 71.5V72H1H102.595V283V283.5H103.095H166.905H167.405V283V72H269H269.5V71.5V1V0.5H269H167.405H166.905H103.095H102.595Z" stroke="white" stroke-opacity="0.65"/>
<path d="M65.3095 1V0.5H64.8095H51C23.1096 0.5 0.5 23.1096 0.5 51V283V283.5H1H14.8095C42.6999 283.5 65.3095 260.89 65.3095 233V1Z" fill="url(#paint4_linear_0_9)"/>
<path d="M65.3095 1V0.5H64.8095H51C23.1096 0.5 0.5 23.1096 0.5 51V283V283.5H1H14.8095C42.6999 283.5 65.3095 260.89 65.3095 233V1Z" stroke="url(#paint5_linear_0_9)"/>
<path d="M65.3095 1V0.5H64.8095H51C23.1096 0.5 0.5 23.1096 0.5 51V283V283.5H1H14.8095C42.6999 283.5 65.3095 260.89 65.3095 233V1Z" stroke="white" stroke-opacity="0.65"/>
<defs>
<linearGradient id="paint0_linear_0_9" x1="6.10477" y1="-89.24" x2="340.821" y2="295.625" gradientUnits="userSpaceOnUse">
<stop offset="0.201626" stop-color="#7B83EB" stop-opacity="0"/>
<stop offset="0.555555" stop-color="#A329A6"/>
<stop offset="0.902265" stop-color="#505AC9" stop-opacity="0.83"/>
</linearGradient>
<linearGradient id="paint1_linear_0_9" x1="135" y1="1" x2="135" y2="283" gradientUnits="userSpaceOnUse">
<stop stop-color="#CAC1C1"/>
<stop offset="0.9999" stop-color="#E3E3E3" stop-opacity="0"/>
<stop offset="1" stop-color="#E3E3E3" stop-opacity="0"/>
</linearGradient>
<linearGradient id="paint2_linear_0_9" x1="247.305" y1="-210.5" x2="90.1439" y2="408.69" gradientUnits="userSpaceOnUse">
<stop offset="0.421875" stop-color="#8F35D7"/>
<stop offset="1" stop-color="#A5700A" stop-opacity="0.17"/>
</linearGradient>
<linearGradient id="paint3_linear_0_9" x1="135" y1="1" x2="135" y2="283" gradientUnits="userSpaceOnUse">
<stop stop-color="#CAC1C1"/>
<stop offset="0.9999" stop-color="#E3E3E3" stop-opacity="0"/>
<stop offset="1" stop-color="#E3E3E3" stop-opacity="0"/>
</linearGradient>
<linearGradient id="paint4_linear_0_9" x1="43.1143" y1="-8.87" x2="92.9171" y2="340.741" gradientUnits="userSpaceOnUse">
<stop offset="0.307549" stop-color="#8044AF"/>
<stop offset="0.485791" stop-color="#8B07C9" stop-opacity="0"/>
<stop offset="1" stop-color="#6807C9" stop-opacity="0"/>
</linearGradient>
<linearGradient id="paint5_linear_0_9" x1="32.9048" y1="1" x2="32.9048" y2="283" gradientUnits="userSpaceOnUse">
<stop stop-color="#CAC1C1"/>
<stop offset="0.9999" stop-color="#E3E3E3" stop-opacity="0"/>
<stop offset="1" stop-color="#E3E3E3" stop-opacity="0"/>
</linearGradient>
</defs>
</svg>
