<svg width="383" height="501" viewBox="0 0 383 501" fill="none" xmlns="http://www.w3.org/2000/svg">
<path d="M192.399 449.82L190.237 452.154L193.345 451.477C249.436 439.261 279.015 417.236 291.217 390.353C303.406 363.502 298.103 332.135 285.217 301.585C272.32 271.013 251.747 241.064 233.085 216.91C223.751 204.828 214.885 194.185 207.686 185.631C206.641 184.388 205.631 183.191 204.662 182.04C198.935 175.248 194.586 170.089 192.313 166.918C181.634 152.018 174.422 135.734 169.878 123.16C167.607 116.876 166.005 111.527 164.972 107.752C164.456 105.864 164.081 104.37 163.837 103.351C163.714 102.841 163.624 102.449 163.565 102.186C163.535 102.055 163.514 101.956 163.499 101.89L163.483 101.816L163.479 101.798L163.478 101.794L163.478 101.793L162.5 102L163.478 101.793L163.168 100.325L161.933 101.177C145.191 112.708 135.404 124.32 130.923 136.185C126.435 148.071 127.322 160.077 131.663 172.281C135.996 184.462 143.785 196.885 153.164 209.667C159.533 218.349 166.67 227.239 173.986 236.354C177.437 240.653 180.928 245.003 184.398 249.403C206.1 276.929 227.032 306.566 233.094 339.536C239.137 372.406 230.424 408.766 192.399 449.82Z" fill="#FD0000" stroke="#686868" stroke-width="2"/>
<path d="M159.916 249.369C157.467 247.289 154.943 244.945 152.378 242.362C141.733 231.643 130.529 216.965 121.103 200.356C102.156 166.972 90.84 126.633 104.41 95.1683C117.997 63.6647 146.332 48.7611 179.689 45.2248C211.011 41.9043 246.486 48.6703 277.407 61.0029C275.924 61.0138 274.254 61.0145 272.405 61.0111C271.646 61.0097 270.861 61.0077 270.051 61.0057C258.503 60.9764 241.838 60.9341 223.845 62.4448C204.609 64.0598 183.692 67.4605 165.751 74.6371C147.814 81.812 132.554 92.8862 125.165 110.019C110.7 143.558 118.945 179.873 133.038 208.762C140.102 223.241 148.687 235.969 156.785 245.719C157.835 246.982 158.88 248.201 159.916 249.369Z" fill="#B9B9B9" stroke="#686868" stroke-width="5"/>
<path d="M215.859 325.762C219.819 335.661 222.888 347.356 223.838 359.741C225.81 385.472 218.623 413.869 191.548 435.202C164.6 456.436 132.586 456.05 101.57 443.276C72.4455 431.282 44.4716 408.441 23.1531 382.873C24.4623 383.57 25.9312 384.364 27.5558 385.248C28.2223 385.61 28.9118 385.986 29.6235 386.373C39.7645 391.898 54.3986 399.87 70.9402 407.109C88.6251 414.848 108.637 421.817 127.832 424.049C147.021 426.281 165.713 423.809 180.368 412.261C208.771 389.882 217.755 366.503 218.13 345.974C218.261 338.782 217.334 331.987 215.859 325.762Z" fill="#B9B9B9" stroke="#686868" stroke-width="5"/>
</svg>
